HIERARCHY
ROOT Hips
{
	OFFSET 0.00 0.00 0.00
	CHANNELS 6 Xposition Yposition Zposition Xrotation Yrotation Zrotation
	JOINT LeftUpLeg
	{
		OFFSET 3.76682 0.00000 0.00000
		CHANNELS 3 Xrotation Yrotation Zrotation
		JOINT LeftLeg
		{
			OFFSET 0.00000 -17.03178 0.00000
			CHANNELS 3 Xrotation Yrotation Zrotation
			JOINT LeftFoot
			{
				OFFSET 0.00000 -15.72190 0.00000
				CHANNELS 3 Xrotation Yrotation Zrotation
				JOINT LeftToeBase
				{
					OFFSET 0.00000 -1.61281 6.01911
					CHANNELS 3 Xrotation Yrotation Zrotation
					End Site
					{
						OFFSET 0.00000 0.00000 2.95275
					}
				}
			}
		}
	}
	JOINT RightUpLeg
	{
		OFFSET -3.76682 0.00000 0.00000
		CHANNELS 3 Xrotation Yrotation Zrotation
		JOINT RightLeg
		{
			OFFSET 0.00000 -17.03178 0.00000
			CHANNELS 3 Xrotation Yrotation Zrotation
			JOINT RightFoot
			{
				OFFSET 0.00000 -15.72190 0.00000
				CHANNELS 3 Xrotation Yrotation Zrotation
				JOINT RightToeBase
				{
					OFFSET 0.00000 -1.61281 6.01911
					CHANNELS 3 Xrotation Yrotation Zrotation
					End Site
					{
						OFFSET 0.00000 0.00000 2.95275
					}
				}
			}
		}
	}
	JOINT Spine
	{
		OFFSET 0.00000 0.03937 0.00000
		CHANNELS 3 Xrotation Yrotation Zrotation
		JOINT Spine1
		{
			OFFSET 0.00000 6.63648 0.00000
			CHANNELS 3 Xrotation Yrotation Zrotation
			JOINT Neck
			{
				OFFSET 0.00000 10.89313 0.00000
				CHANNELS 3 Xrotation Yrotation Zrotation
				JOINT Head
				{
					OFFSET 0.00000 5.84841 0.00000
					CHANNELS 3 Xrotation Yrotation Zrotation
					End Site
					{
						OFFSET 0.00000 4.52755 0.00000
					}
				}
			}
			JOINT LeftShoulder
			{
				OFFSET 0.00000 10.89313 0.00000
				CHANNELS 3 Xrotation Yrotation Zrotation
				JOINT LeftArm
				{
					OFFSET 7.21266 -0.00003 0.00000
					CHANNELS 3 Xrotation Yrotation Zrotation
					JOINT LeftForeArm
					{
						OFFSET 9.64829 -0.00004 0.00000
						CHANNELS 3 Xrotation Yrotation Zrotation
						JOINT LeftHand
						{
							OFFSET 9.06793 -0.00003 0.00000
							CHANNELS 3 Xrotation Yrotation Zrotation
							JOINT LeftHandThumb
							{
								OFFSET 0.00000 0.00000 0.00000
								CHANNELS 3 Xrotation Yrotation Zrotation
								End Site
								{
									OFFSET 0.00000 0.00000 3.93700
								}
							}
							JOINT L_Wrist_End
							{
								OFFSET 3.93700 -0.00001 0.00000
								CHANNELS 3 Xrotation Yrotation Zrotation
							}
						}
					}
				}
			}
			JOINT RightShoulder
			{
				OFFSET 0.00000 10.89313 0.00000
				CHANNELS 3 Xrotation Yrotation Zrotation
				JOINT RightArm
				{
					OFFSET -7.21266 -0.00003 0.00000
					CHANNELS 3 Xrotation Yrotation Zrotation
					JOINT RightForeArm
					{
						OFFSET -9.64829 -0.00004 0.00000
						CHANNELS 3 Xrotation Yrotation Zrotation
						JOINT RightHand
						{
							OFFSET -9.06793 -0.00003 0.00000
							CHANNELS 3 Xrotation Yrotation Zrotation
							JOINT RightHandThumb
							{
								OFFSET 0.00000 0.00000 0.00000
								CHANNELS 3 Xrotation Yrotation Zrotation
								End Site
								{
									OFFSET 0.00000 0.00000 3.93700
								}
							}
							JOINT R_Wrist_End
							{
								OFFSET -5.39369 -0.00002 0.00000
								CHANNELS 3 Xrotation Yrotation Zrotation
							}
						}
					}
				}
			}
		}
	}
}
MOTION
Frames: 16
Frame Time: 0.008333
 -4.4704 34.8030 8.6121 -7.0129 -26.8495 -11.6219 -8.1346 4.3591 19.1569 70.9494 -0.0000 0.0000 2.0077 6.0881 -8.3787 -13.4513 -0.0000 -0.0000 -0.6757 -2.7213 16.9060 15.0007 0.0000 0.0000 -1.5262 -10.6979 -6.0329 -10.4228 0.0000 0.0000 -14.8536 -6.0585 -4.9004 16.8267 1.4219 9.3338 24.1939 1.7275 12.5098 -19.2285 5.1804 -15.5016 2.1513 -11.6896 10.0086 -1.7818 -38.4840 -63.8490 -0.0002 -40.2801 -0.0001 22.4135 6.0805 -0.1250 -0.0000 -0.0000 -0.0000 -0.0000 -0.0000 -0.0000 10.9022 -3.4673 1.1761 16.2224 19.7916 64.3996 -0.0001 30.1757 0.0000 19.1749 -42.2280 0.4747 -0.0000 0.0000 0.0000 -0.0000 0.0000 0.0000
 -4.5961 34.8046 8.7340 -7.1409 -27.4094 -11.7013 -9.1324 3.4524 18.8967 72.1566 -0.0000 0.0000 1.3849 5.9402 -8.0342 -12.9058 0.0000 -0.0000 -0.1419 -2.5834 16.9777 14.6628 0.0000 -0.0000 -1.6038 -10.1573 -6.1286 -10.4104 -0.0000 -0.0000 -14.8280 -5.9803 -4.9141 16.9322 1.5260 9.3633 23.9740 1.8801 12.3786 -19.0649 5.3968 -15.3578 2.4902 -11.6388 9.9325 -0.5157 -39.3117 -63.5486 -0.0002 -39.4241 -0.0001 22.2766 6.3004 -0.0166 -0.0000 0.0000 -0.0000 -0.0000 0.0000 -0.0000 10.5431 -3.2476 1.1702 15.5736 19.7134 64.3717 -0.0001 30.5825 0.0000 19.3294 -42.2565 0.2139 0.0000 -0.0000 -0.0000 0.0000 -0.0000 -0.0000
 -4.7239 34.8083 8.8497 -7.2537 -28.1958 -11.8119 -10.1423 2.7548 18.7292 73.0683 -0.0000 0.0000 1.0283 5.7893 -8.2640 -13.1833 0.0000 0.0000 0.1971 -2.1958 17.0904 14.5079 0.0000 0.0000 -1.6866 -9.7191 -6.3693 -10.5188 -0.0000 -0.0000 -14.8712 -5.8332 -4.9361 17.1025 1.7222 9.4480 23.8197 2.0553 12.2978 -19.0786 5.7128 -15.3137 2.8541 -11.3018 9.9366 0.3600 -40.3537 -63.5233 -0.0002 -38.3098 -0.0001 22.0159 6.3628 -0.0524 -0.0000 -0.0000 -0.0000 -0.0000 -0.0000 -0.0000 10.4868 -2.9735 1.1032 14.7348 19.9135 64.2737 -0.0001 31.1864 0.0000 18.9858 -42.3560 0.0192 0.0000 -0.0000 0.0000 0.0000 -0.0000 0.0000
 -4.8421 34.8184 8.9500 -7.2737 -28.9691 -11.8552 -11.2440 1.9997 18.4642 73.8391 -0.0000 0.0000 0.8738 5.5461 -7.7954 -13.4319 0.0000 -0.0000 0.4551 -1.7530 17.1754 14.2541 0.0000 0.0000 -1.7404 -9.3555 -6.3902 -10.4878 -0.0000 0.0000 -14.9510 -5.7004 -4.9847 17.3090 1.9188 9.5587 23.5887 2.2999 12.1023 -19.1636 5.9190 -15.1796 3.2762 -10.8112 9.8080 1.3067 -41.6753 -63.1591 -0.0002 -37.2038 -0.0001 21.2347 6.1752 -0.1048 0.0000 -0.0000 0.0000 0.0000 -0.0000 0.0000 10.2833 -2.7978 0.9139 14.0247 20.5022 64.2328 -0.0001 31.7698 0.0000 18.4174 -42.5013 -0.7345 -0.0000 0.0000 -0.0000 -0.0000 0.0000 -0.0000
 -4.9592 34.8400 9.0680 -7.3416 -29.5521 -11.8907 -12.1823 1.0214 18.0573 74.2976 -0.0000 0.0000 0.6209 5.5675 -8.1321 -13.1571 0.0000 0.0000 1.0314 -1.7736 17.1749 13.7913 0.0000 -0.0000 -1.6849 -8.6616 -6.5922 -10.4703 -0.0000 0.0000 -14.9016 -5.5845 -4.9660 17.3491 2.0499 9.5670 23.3633 2.4410 11.9535 -19.0456 6.0781 -15.0227 3.5918 -10.6373 9.8194 2.2594 -42.5132 -63.2839 -0.0002 -36.1277 -0.0001 21.1461 6.2554 -0.2768 0.0000 0.0000 0.0000 0.0000 0.0000 0.0000 9.8466 -2.6147 0.7633 13.5083 20.5569 64.3506 -0.0001 32.4015 0.0000 17.9736 -42.1911 -1.2434 0.0000 0.0000 0.0000 0.0000 0.0000 0.0000
 -5.0731 34.8580 9.1841 -7.3938 -30.4132 -11.8628 -13.1043 0.3395 17.6468 74.4900 -0.0000 0.0000 0.4175 5.4432 -8.5505 -13.2868 0.0000 -0.0000 1.3463 -1.3214 17.1289 13.5374 -0.0000 0.0000 -1.7096 -8.1993 -6.8237 -10.5108 0.0000 0.0000 -14.8852 -5.3792 -4.9480 17.3546 2.2640 9.5554 23.2484 2.7656 11.7456 -19.1571 6.1791 -14.9009 3.8999 -10.1966 9.7667 3.0441 -43.4769 -63.4528 -0.0001 -34.9073 -0.0000 20.0609 6.2139 -0.0536 -0.0000 0.0000 0.0000 -0.0000 0.0000 0.0000 9.8593 -2.3319 0.4843 12.4487 20.5030 64.6045 -0.0001 33.1440 0.0000 18.0578 -41.9585 -0.9764 0.0000 0.0000 -0.0000 0.0000 0.0000 -0.0000
 -5.1686 34.8787 9.3035 -7.3996 -31.2555 -11.6558 -14.0354 -0.3446 16.9774 74.4747 -0.0000 0.0000 0.1384 5.4641 -8.5431 -12.7333 0.0000 -0.0000 1.7081 -1.2689 16.8456 13.3184 -0.0000 0.0000 -1.8496 -7.3474 -6.8218 -10.2877 0.0000 0.0000 -14.7657 -5.1420 -4.8857 17.1626 2.4434 9.3743 23.2377 3.0109 11.4764 -19.3383 6.2974 -14.6885 4.2128 -9.8355 9.6123 4.0441 -44.3224 -63.4521 -0.0001 -33.8894 -0.0000 20.7048 6.2376 -0.9804 0.0000 0.0000 -0.0000 0.0000 0.0000 -0.0000 9.7304 -2.0788 0.2533 11.7549 20.7816 64.8082 -0.0001 33.8953 0.0000 16.4172 -41.7949 -2.3088 0.0000 0.0000 0.0000 0.0000 0.0000 0.0000
 -5.2650 34.9069 9.4188 -7.3438 -32.0950 -11.4412 -14.9674 -1.0463 16.3269 74.2083 -0.0000 0.0000 -0.1090 5.5183 -8.6227 -12.5416 -0.0000 0.0000 2.0391 -1.0731 16.6007 12.9472 0.0000 0.0000 -1.8599 -6.6756 -6.9040 -10.3172 0.0000 0.0000 -14.6284 -4.9055 -4.7832 16.8904 2.6055 9.1716 23.2610 3.2411 11.2503 -19.5401 6.4342 -14.5292 4.4522 -9.3975 9.4920 5.0151 -45.2275 -63.5710 -0.0001 -32.7560 -0.0000 22.8878 6.4842 -2.6886 -0.0000 -0.0000 0.0000 -0.0000 -0.0000 0.0000 9.5701 -1.7929 0.0125 11.2418 21.2249 64.9994 -0.0001 34.6714 0.0000 14.2459 -41.4523 -3.6185 0.0000 0.0000 -0.0000 0.0000 0.0000 -0.0000
 -5.3564 34.9376 9.5366 -7.2582 -33.0208 -11.1569 -15.8798 -1.6298 15.6268 73.6920 -0.0000 0.0000 -0.2571 5.6006 -8.4113 -12.8522 0.0000 -0.0000 2.3078 -0.7710 16.2925 12.5886 -0.0000 -0.0000 -1.8857 -6.0476 -6.9406 -10.3329 0.0000 0.0000 -14.4558 -4.5868 -4.6473 16.5135 2.8252 8.9099 23.3138 3.5132 11.0048 -19.7902 6.4772 -14.3565 4.7374 -8.9903 9.2690 6.0287 -46.0150 -63.5750 -0.0001 -31.7374 -0.0000 22.6202 6.3348 -3.0477 0.0000 0.0000 0.0000 0.0000 0.0000 0.0000 9.4124 -1.4994 -0.1860 10.5778 21.0090 65.2957 -0.0002 35.7050 0.0000 14.0312 -41.2905 -3.5444 -0.0000 0.0000 0.0000 -0.0000 0.0000 0.0000
 -5.4681 34.9744 9.6585 -7.2682 -33.6295 -11.1565 -16.7012 -2.4524 15.1822 73.1411 -0.0000 0.0000 -0.4230 5.3976 -7.4317 -12.9802 0.0000 0.0000 2.9277 -0.7205 16.2527 11.8462 -0.0000 0.0000 -1.5604 -5.4831 -7.0331 -10.9000 0.0000 0.0000 -14.3611 -4.3845 -4.5308 16.4424 3.0097 8.8726 23.2404 3.8523 10.7737 -20.0447 6.3987 -14.3254 4.8638 -8.7177 9.0848 7.0851 -46.6631 -63.7074 -0.0001 -30.8767 -0.0000 22.6161 6.3852 -3.2563 -0.0000 -0.0000 -0.0000 -0.0000 -0.0000 -0.0000 9.1493 -1.2651 -0.4929 10.2701 21.2057 65.5369 -0.0002 36.7951 0.0001 13.0207 -40.9086 -4.4773 -0.0000 0.0000 -0.0000 -0.0000 0.0000 -0.0000
 -5.5377 35.0105 9.7966 -7.1069 -34.8675 -10.4940 -17.4692 -2.7338 14.1149 72.0097 -0.0000 0.0000 -0.6605 5.7709 -7.7692 -13.1639 0.0000 -0.0000 2.9851 -0.2344 15.5114 11.7274 0.0000 -0.0000 -1.8731 -4.7062 -7.0149 -10.4794 -0.0000 0.0000 -14.0609 -3.9473 -4.3866 15.6583 3.2496 8.3350 23.5237 4.2073 10.4716 -20.3505 6.4021 -14.1568 5.2971 -8.0137 8.7404 7.8340 -47.2290 -63.8406 -0.0001 -29.8463 -0.0000 22.2532 6.1026 -4.0237 -0.0000 0.0000 0.0000 -0.0000 0.0000 0.0000 9.0235 -0.8472 -0.7627 9.9605 21.6465 65.6894 -0.0002 37.6072 0.0001 11.9684 -40.4532 -4.8523 -0.0000 -0.0000 -0.0000 -0.0000 -0.0000 -0.0000
 -5.6234 35.0522 9.9241 -6.9676 -35.8386 -10.1201 -18.2198 -3.2929 13.3567 70.8444 0.0000 0.0000 -0.8259 6.0627 -8.0057 -13.4966 0.0000 -0.0000 3.2106 0.3068 15.1234 11.2489 -0.0000 -0.0000 -1.7113 -4.2977 -7.2762 -10.7446 -0.0000 0.0000 -13.7881 -3.5645 -4.1152 15.0879 3.4426 7.8765 23.7115 4.4345 10.2279 -20.6899 6.4634 -14.0044 5.5925 -7.5243 8.4900 8.7380 -47.6840 -63.9667 -0.0001 -28.9872 -0.0000 22.1059 6.0107 -4.4545 -0.0000 0.0000 0.0000 -0.0000 0.0000 0.0000 8.8654 -0.4913 -0.9938 9.6573 21.8140 65.9275 -0.0002 38.7020 0.0001 10.8074 -40.1093 -5.5005 -0.0000 0.0000 0.0000 -0.0000 0.0000 0.0000
 -5.7051 35.0987 10.0613 -6.8435 -36.8412 -9.6991 -18.8955 -3.7262 12.5596 69.4748 -0.0000 0.0000 -1.0556 6.5085 -7.3274 -13.4028 0.0000 0.0000 3.5318 0.3043 14.5875 10.9284 0.0000 -0.0000 -1.7599 -3.2264 -7.2608 -10.4803 -0.0000 -0.0000 -13.5568 -3.1382 -3.8455 14.5844 3.6646 7.3757 23.8801 4.7138 9.9629 -21.0467 6.4228 -13.8567 6.0071 -6.9650 8.2130 9.4457 -48.0704 -64.1026 -0.0001 -28.1701 -0.0000 21.8991 5.9076 -4.9307 0.0000 0.0000 -0.0000 0.0000 0.0000 -0.0000 8.6778 -0.1656 -1.2306 9.3793 22.1251 66.1529 -0.0002 39.6643 0.0001 10.1143 -39.8123 -6.0495 -0.0000 0.0000 -0.0000 -0.0000 0.0000 -0.0000
 -5.7898 35.1425 10.2029 -6.7069 -37.8736 -9.2603 -19.4804 -4.1699 11.7738 67.8907 -0.0000 0.0000 -1.0359 7.0140 -6.8581 -13.4938 0.0000 0.0000 3.8221 0.5939 14.0577 10.5152 -0.0000 -0.0000 -1.6999 -2.4837 -7.1912 -10.5604 0.0000 0.0000 -13.3269 -2.6843 -3.5268 14.0578 3.8889 6.8201 24.0507 5.0139 9.6613 -21.3485 6.3496 -13.7091 6.2941 -6.4607 7.8948 10.3692 -48.2077 -64.2070 -0.0001 -27.5529 -0.0000 21.9087 5.8820 -5.4072 -0.0000 0.0000 -0.0000 -0.0000 0.0000 -0.0000 8.5324 0.1996 -1.4985 9.1191 22.3663 66.4242 -0.0002 40.7327 0.0001 9.7403 -39.6050 -6.2928 -0.0000 0.0000 -0.0000 -0.0000 0.0000 -0.0000
 -5.8727 35.1848 10.3415 -6.5443 -38.9005 -8.8065 -20.0251 -4.6485 11.0125 66.1401 -0.0000 0.0000 -1.1259 7.5892 -6.8820 -13.3393 0.0000 0.0000 4.0742 0.9093 13.5331 10.1170 -0.0000 0.0000 -1.6819 -1.7760 -7.1368 -10.5284 -0.0000 -0.0000 -13.0473 -2.2151 -3.1639 13.4880 4.1044 6.1957 24.2222 5.2886 9.3767 -21.6824 6.2914 -13.5316 6.6636 -5.9000 7.6123 11.1628 -48.3792 -64.2986 -0.0001 -26.9103 -0.0000 20.9461 5.4702 -5.2544 0.0000 0.0000 -0.0000 0.0000 0.0000 -0.0000 8.3712 0.5542 -1.7386 8.9039 22.6669 66.6821 -0.0002 41.7991 0.0001 8.7029 -39.3546 -7.0034 -0.0000 0.0000 -0.0000 -0.0000 0.0000 -0.0000
 -5.9735 35.2259 10.4786 -6.4878 -39.9635 -8.6582 -20.4056 -5.1068 10.6064 64.2881 -0.0000 0.0000 -1.3642 8.1099 -7.2191 -12.7143 0.0000 0.0000 4.4152 1.3752 13.3089 9.6739 -0.0000 0.0000 -1.5534 -1.3424 -7.6495 -10.4105 -0.0000 -0.0000 -12.9063 -1.8284 -2.8985 13.2210 4.3951 5.9966 24.3767 6.0829 8.8441 -22.2773 5.7571 -13.4324 6.8332 -5.2127 7.3678 11.7160 -48.5374 -64.7797 -0.0001 -26.1445 -0.0000 20.7867 5.2637 -5.3870 -0.0000 -0.0000 -0.0000 -0.0000 -0.0000 -0.0000 8.1022 0.9471 -2.3129 8.6007 23.0642 67.1579 -0.0002 42.7656 0.0001 8.4088 -39.0659 -7.1800 0.0000 0.0000 -0.0000 0.0000 0.0000 -0.0000
